<?xml version="1.0" encoding="UTF-8"?>
<svg xmlns="http://www.w3.org/2000/svg">
  <symbol id="icon-twitter" viewBox="0 0 22 22">
    <path d="M17.36 7.74v.43c0 4.33-3.3 9.33-9.32 9.33A9.27 9.27 0 0 1 3 16.03a6.8 6.8 0 0 0 4.86-1.37A3.28 3.28 0 0 1 4.8 12.4a3.47 3.47 0 0 0 1.48-.06 3.28 3.28 0 0 1-2.63-3.22v-.04c.44.24.94.4 1.48.42A3.28 3.28 0 0 1 4.12 5.1a9.32 9.32 0 0 0 6.76 3.43 3.28 3.28 0 0 1 5.6-3 6.46 6.46 0 0 0 2.07-.78c-.24.76-.76 1.4-1.44 1.8.66-.07 1.3-.25 1.89-.5-.45.65-1 1.22-1.64 1.7Z"/>
  </symbol>
  <symbol id="icon-tick" viewBox="0 0 24 24" fill="none">
    <path stroke="currentColor" stroke-linecap="round" stroke-linejoin="round" d="m5 11 5.4 5L19 8"/>
  </symbol>
  <symbol id="icon-close" viewBox="0 0 24 24" fill="none">
    <path stroke="currentColor" d="m6 6 6 6m0 0 6 6m-6-6 6-6m-6 6-6 6"/>
  </symbol>
  <symbol id="icon-settings" viewBox="0 0 24 24" fill="none">
    <circle cx="12" cy="12" r="2.5" stroke="currentColor"/>
    <path stroke="currentColor" d="M10.187 4.992a2.348 2.348 0 0 1 3.626 0 3.348 3.348 0 0 0 2.536 1.221 2.348 2.348 0 0 1 2.26 2.835 3.347 3.347 0 0 0 .627 2.744 2.348 2.348 0 0 1-.807 3.535 3.347 3.347 0 0 0-1.755 2.2 2.348 2.348 0 0 1-3.267 1.574 3.347 3.347 0 0 0-2.814 0 2.348 2.348 0 0 1-3.267-1.574 3.347 3.347 0 0 0-1.755-2.2 2.348 2.348 0 0 1-.807-3.535c.602-.778.83-1.782.626-2.744a2.348 2.348 0 0 1 2.262-2.835 3.348 3.348 0 0 0 2.535-1.22Z"/>
  </symbol>
  <symbol id="icon-notification" viewBox="0 0 24 24" fill="none">
    <path stroke="currentColor" stroke-linecap="round" stroke-linejoin="round" d="M17.17 18H6.83a2 2 0 0 1-1.42-3.41A2 2 0 0 0 6 13.17v-2.44c0-1.7.85-3.3 2.27-4.25l.26-.16c.31-.21.59-.47.81-.78a3.32 3.32 0 0 1 5.32 0c.22.3.5.57.81.78l.26.16A5.1 5.1 0 0 1 18 10.73v2.44a2 2 0 0 0 .59 1.42A2 2 0 0 1 17.17 18Z"/>
    <path stroke="currentColor" d="M14 19a2 2 0 1 1-4 0"/>
  </symbol>
  <symbol id="icon-log_out" viewBox="0 0 24 24" fill="none">
    <path stroke="currentColor" stroke-linecap="round" stroke-linejoin="round" d="M12 20H8a4 4 0 0 1-4-4V8a4 4 0 0 1 4-4h4M10 12h10m0 0-4.7-4m4.7 4-4.7 4"/>
  </symbol>
  <symbol id="icon-plus" viewBox="0 0 24 24" fill="none">
    <path stroke="currentColor" d="M12.07 19.14v-7.07m0 0V5m0 7.07H5m7.07 0h7.07"/>
  </symbol>
  <symbol id="icon-people" viewBox="0 0 24 24" clip-rule="evenodd" fill-rule="evenodd" fill="currentColor">
    <path d="M17.323 9.824a3.235 3.235 0 1 1-6.47 0 3.235 3.235 0 0 1 6.47 0Zm-1.638 3.924a4.237 4.237 0 0 0-1.597-8.16 4.235 4.235 0 0 0-1.597 8.16 6.848 6.848 0 0 0-4.734 4.041 6.853 6.853 0 0 0-.522 2.623h1a5.853 5.853 0 0 1 11.706 0h1a6.853 6.853 0 0 0-5.256-6.664Z"/>
    <path d="M5.697 7.393a2.893 2.893 0 0 1 5.152-1.808l.78-.625a3.893 3.893 0 1 0-5.116 5.727A5.591 5.591 0 0 0 3 15.877h1a4.59 4.59 0 0 1 4.59-4.59v-1a2.893 2.893 0 0 1-2.893-2.894Z"/>
  </symbol>
  <symbol id="icon-inbox" fill="none" viewBox="0 0 24 24" stroke-linecap="round" stroke-linejoin="round">
    <path stroke="currentColor" d="M4 17.72a1 1 0 0 0 1 1h14a1 1 0 0 0 1-1v-5.18a1 1 0 0 0-.09-.42l-2.84-6.25a1 1 0 0 0-.91-.59H7.84a1 1 0 0 0-.9.59l-2.85 6.25a1 1 0 0 0-.09.42v5.18Z"/>
    <path stroke="currentColor" d="M4.64 12.96h3.3a1 1 0 0 1 .84.45l.68 1.02a1 1 0 0 0 .84.45h3.4a1 1 0 0 0 .84-.45l.68-1.02a1 1 0 0 1 .84-.45h3.3"/>
  </symbol>
  <symbol id="icon-chevron_down" viewBox="0 0 24 24" fill="none">
    <path stroke="currentColor" d="m6 9 6 6 6-6"/>
  </symbol>
  <symbol id="icon-more" viewBox="0 0 24 24" fill="currentColor">
    <circle cx="6" cy="12" r="1.5"/>
    <circle cx="12" cy="12" r="1.5"/>
    <circle cx="18" cy="12" r="1.5"/>
  </symbol>
  <symbol id="icon-clock" viewBox="0 0 24 24" fill="none">
    <circle cx="12" cy="12" r="7.5" stroke="currentColor"/>
    <path stroke="currentColor" stroke-linecap="round" stroke-linejoin="round" d="M11.5 8v5l3 2.5"/>
  </symbol>
  <symbol id="icon-question" viewBox="0 0 24 24" fill="none">
    <path fill="currentColor" fill-rule="evenodd" d="M20 12a8 8 0 1 1-16 0 8 8 0 0 1 16 0Zm-8.95-4.32a2.57 2.57 0 0 1 2.71.52 2.4 2.4 0 0 1 .55 2.66c-.2.44-.52.82-.93 1.08l-.02.01c-.25.16-.47.34-.63.53a.82.82 0 0 0-.23.52.5.5 0 0 1-1 0c0-.47.2-.87.46-1.17.26-.3.58-.54.87-.72h.01c.25-.17.44-.4.55-.65a1.35 1.35 0 0 0-.32-1.54c-.21-.2-.48-.34-.77-.4-.3-.05-.6-.02-.88.1-.28.1-.51.29-.67.52-.16.23-.25.5-.25.78a.5.5 0 0 1-1 0c0-.48.15-.95.43-1.35.27-.4.67-.7 1.12-.89ZM12 16.5a.75.75 0 1 0 0-1.5.75.75 0 0 0 0 1.5Z" clip-rule="evenodd"/>
  </symbol>
  <symbol id="icon-delete" viewBox="0 0 24 24" fill="none">
    <path stroke="currentColor" stroke-linecap="round" stroke-linejoin="round" d="m17.9 7.56-.72 10.58a2 2 0 0 1-2 1.86H8.82a2 2 0 0 1-2-1.86L6.11 7.56m11.78 0H20m-2.1 0h-2.95m-8.84 0H4m2.1 0h2.95m0 0h5.9m-5.9 0h5.9m-5.9 0V6c0-1.1.9-2 2-2h1.9a2 2 0 0 1 2 2v1.56m-4.63 3.1v6.67m3.36-6.66v6.66"/>
  </symbol>
  <symbol id="icon-duplicate" viewBox="0 0 24 24" fill="none">
    <path stroke="currentColor" d="M16 6.1V6a2 2 0 0 0-2-2H6a2 2 0 0 0-2 2v8c0 1.1.9 2 2 2h.1"/>
    <rect width="11" height="11" x="8.5" y="8.5" stroke="currentColor" rx="1.5"/>
  </symbol>
  <symbol id="icon-search" viewBox="0 0 24 24" fill="none">
    <path stroke="currentColor" stroke-linecap="round" d="m19 19-3.3-3.31L19 19Zm-1.47-7.74a6.26 6.26 0 1 1-12.53 0 6.26 6.26 0 0 1 12.53 0v0Z"/>
  </symbol>
  <symbol id="icon-note" viewBox="0 0 24 24" fill="none">
    <path stroke="currentColor" stroke-linecap="round" stroke-linejoin="round" d="M9.85 17.64 5 19l1.36-4.85 8.87-8.83a1.08 1.08 0 0 1 1.54 0l1.91 1.92a1.07 1.07 0 0 1 0 1.53l-8.83 8.87Z"/>
  </symbol>
  <symbol id="icon-missed" viewBox="0 0 20 20" fill="none">
    <path d="M15.1858 9.99984C15.1858 8.61091 14.6824 7.26755 13.766 6.2114C12.8497 5.15525 11.5805 4.45561 10.1869 4.23833C8.79332 4.02106 7.36668 4.3004 6.16362 5.02611C4.96056 5.75183 4.06004 6.87629 3.62402 8.19724C3.188 9.5182 3.24511 10.9489 3.78507 12.2322C4.32503 13.5154 5.3124 14.5668 6.5696 15.1974C7.82679 15.8279 9.2713 15.9962 10.6433 15.672C12.0153 15.3477 13.2247 14.5523 14.0541 13.4286M15.1858 9.99984L16.6673 7.81233M15.1858 9.99984L12.9636 8.17691" stroke="#D96566"/>
    <path d="M9.16602 6.6665V11.4284M9.16602 12.3808V13.3332" stroke="#D96566"/>
  </symbol>
  <symbol id="icon-clock" viewBox="0 0 20 21" fill="none">
    <circle cx="10.0007" cy="10.5002" r="6.16667" stroke="#9CA3AF"/>
    <path d="M9.58398 7.1665V11.3332L12.084 13.4165" stroke="#9CA3AF" stroke-linecap="round" stroke-linejoin="round"/>
  </symbol>
  <symbol id="icon-trials" viewBox="0 0 20 21" fill="none">
    <path fill-rule="evenodd" clip-rule="evenodd" d="M12.2696 4.1992L9.38289 5.86586L9.71623 6.44321C7.72334 7.59381 7.04053 10.1421 8.19112 12.135C8.33382 12.3821 8.49801 12.6091 8.67997 12.815L7.8861 13.2733C6.29179 14.1938 4.25316 13.6476 3.33268 12.0533C2.41221 10.4589 2.95846 8.42031 4.55277 7.49984L8.88289 4.99984L11.7696 3.33317C13.364 2.4127 15.4026 2.95895 16.3231 4.55326C17.1116 5.91898 16.8238 7.61075 15.7229 8.6464C15.6398 8.41535 15.5351 8.18845 15.408 7.96832C15.3549 7.87642 15.2989 7.78732 15.2401 7.70105C15.8389 6.97156 15.9568 5.91885 15.457 5.05326C14.8127 3.93724 13.3857 3.55486 12.2696 4.1992Z" fill="#9CA3AF"/>
    <path d="M11.6367 12.99V12.99C10.027 12.9313 8.76963 11.5787 8.82837 9.96895L8.83114 9.89324C8.88988 8.28348 10.2425 7.02614 11.8522 7.08488V7.08488C13.462 7.14362 14.7193 8.49621 14.6606 10.106L14.6578 10.1817C14.5991 11.7914 13.2465 13.0488 11.6367 12.99V12.99ZM11.6367 12.99L11.4876 17.0782" stroke="#9CA3AF"/>
  </symbol>
  <symbol id="icon-id" viewBox="0 0 20 21" fill="none">
    <path d="M6.61523 17.1668L8.64648 3.8335M11.3548 17.1668L13.3861 3.8335M15.4173 7.8335H5.26107M14.7402 12.5002H4.58398" stroke="#9CA3AF" stroke-linecap="round" stroke-linejoin="round"/>
  </symbol>
  <symbol id="icon-patient" viewBox="0 0 20 20" fill="none">
    <path fill-rule="evenodd" clip-rule="evenodd" d="M12.6148 7.32143C12.6148 8.73089 11.4559 9.89286 10.0024 9.89286C8.54895 9.89286 7.39014 8.73089 7.39014 7.32143C7.39014 5.91197 8.54895 4.75 10.0024 4.75C11.4559 4.75 12.6148 5.91197 12.6148 7.32143ZM11.4844 10.5794C12.7404 10.0201 13.6148 8.77173 13.6148 7.32143C13.6148 5.34898 11.9975 3.75 10.0024 3.75C8.00742 3.75 6.39014 5.34898 6.39014 7.32143C6.39014 8.77173 7.2645 10.0201 8.52049 10.5794C8.25497 10.6474 7.99396 10.7337 7.7394 10.8379C7.02175 11.1318 6.36931 11.5628 5.81948 12.1064C5.26963 12.65 4.83317 13.2957 4.53528 14.0067C4.23738 14.7177 4.08398 15.48 4.08398 16.25H5.08398C5.08398 15.6129 5.21089 14.982 5.4576 14.3931C5.70432 13.8042 6.0661 13.2688 6.52255 12.8175C6.97902 12.3662 7.52123 12.0079 8.11838 11.7633C8.71554 11.5188 9.35576 11.3929 10.0025 11.3929C10.6491 11.3929 11.2894 11.5188 11.8865 11.7633C12.4837 12.0079 13.0259 12.3662 13.4823 12.8175C13.9388 13.2688 14.3006 13.8042 14.5473 14.3931C14.794 14.982 14.9209 15.6129 14.9209 16.25H15.9209C15.9209 15.48 15.7675 14.7177 15.4696 14.0067C15.1717 13.2957 14.7353 12.65 14.1854 12.1064C13.6356 11.5628 12.9831 11.1318 12.2655 10.8379C12.0109 10.7337 11.7499 10.6474 11.4844 10.5794Z" fill="#9CA3AF"/>
  </symbol>
  <symbol id="icon-building" viewBox="0 0 20 20" fill="none">
    <path d="M12.6673 16.6668H10.2546C9.62344 16.6668 9.11176 16.1552 9.11176 15.524V15.1973C9.11176 14.5836 8.6143 14.0862 8.00065 14.0862V14.0862C7.387 14.0862 6.88954 14.5836 6.88954 15.1973V15.524C6.88954 16.1552 6.37787 16.6668 5.74668 16.6668H4.47684C3.84566 16.6668 3.33398 16.1552 3.33398 15.524V4.47635C3.33398 3.84517 3.84566 3.3335 4.47684 3.3335H11.5245C12.1556 3.3335 12.6673 3.84517 12.6673 4.47635V16.6668ZM12.6673 16.6668H15.5245C16.1556 16.6668 16.6673 16.1552 16.6673 15.524V9.8394C16.6673 9.5298 16.5417 9.23344 16.3192 9.01814L14.4451 7.20446" stroke="#9CA3AF" stroke-linecap="round" stroke-linejoin="round"/>
    <path d="M5.71484 5.71387H7.14342M9.04818 5.71387H10.4767" stroke="#9CA3AF" stroke-linecap="round" stroke-linejoin="round"/>
    <path d="M5.71484 8.57129H7.14342M9.04818 8.57129H10.4767" stroke="#9CA3AF" stroke-linecap="round" stroke-linejoin="round"/>
    <path d="M5.71484 11.4287H7.14342M9.04818 11.4287H10.4767" stroke="#9CA3AF" stroke-linecap="round" stroke-linejoin="round"/>
  </symbol>
  <symbol id="icon-no-food" viewBox="0 0 20 20" fill="none">
    <path fill-rule="evenodd" clip-rule="evenodd" d="M10.0523 4.16683C10.0523 3.32376 10.7941 2.5835 11.7839 2.5835H12.1766V2.91683C12.1766 3.7599 11.4347 4.50016 10.4449 4.50016H10.0523V4.16683ZM11.7839 1.5835C10.3077 1.5835 9.05228 2.70782 9.05228 4.16683V4.5835C9.05228 5.12064 9.50992 5.50016 9.99861 5.50016H10.4449C11.9211 5.50016 13.1766 4.37584 13.1766 2.91683V2.50016C13.1766 1.96302 12.7189 1.5835 12.2302 1.5835H11.7839ZM4.25 11.2502C4.25 10.3299 4.48239 9.38861 4.93336 8.69398C5.37443 8.01459 6.01042 7.5835 6.8743 7.5835C7.4791 7.5835 8.21918 7.78082 8.82233 7.98916L7.45651 6.62334C7.25979 6.59807 7.06411 6.5835 6.8743 6.5835C5.60976 6.5835 4.68359 7.24224 4.09462 8.14945C3.51554 9.04141 3.25 10.1834 3.25 11.2502C3.25 13.0277 3.84492 14.5972 4.7554 15.7301C5.6612 16.8571 6.90981 17.5835 8.21608 17.5835C8.7641 17.5835 9.43427 17.3868 9.80702 17.2648C9.93267 17.2244 10.0701 17.2244 10.1957 17.2648C10.5685 17.3868 11.2387 17.5835 11.7867 17.5835C13.0918 17.5835 14.3397 16.8569 15.245 15.73C15.439 15.4885 15.6187 15.2272 15.7814 14.9482L15.0456 14.2124C14.8755 14.5381 14.6801 14.8365 14.4654 15.1037C13.697 16.0601 12.7133 16.5835 11.7867 16.5835C11.4148 16.5835 10.8808 16.4369 10.5057 16.314L10.5036 16.3134C10.1779 16.2083 9.82493 16.2083 9.49915 16.3134L9.49711 16.3141C9.122 16.4369 8.58799 16.5835 8.21608 16.5835C7.28791 16.5835 6.30349 16.0599 5.53485 15.1036C4.77091 14.1531 4.25 12.806 4.25 11.2502ZM15.4577 13.2104L16.2418 13.9944C16.5644 13.1712 16.75 12.2431 16.75 11.2502C16.75 10.1834 16.4845 9.04141 15.9054 8.14945C15.3164 7.24224 14.3902 6.5835 13.1257 6.5835C12.2714 6.5835 11.2952 6.88135 10.6482 7.11608C10.24 7.26402 9.77968 7.26618 9.36993 7.12254L10.4426 8.19517C10.6284 8.16682 10.8117 8.12049 10.9891 8.05617L10.9893 8.05612C11.6199 7.82731 12.4569 7.5835 13.1257 7.5835C13.9896 7.5835 14.6256 8.01459 15.0666 8.69398C15.5176 9.38861 15.75 10.3299 15.75 11.2502C15.75 11.9517 15.6441 12.6109 15.4577 13.2104ZM10.1957 17.2648L10.1965 17.2651L10.3501 16.7892L10.1945 17.2644L10.1957 17.2648ZM9.80702 17.2648L9.80626 17.2651L9.65272 16.7893L9.80829 17.2644L9.80702 17.2648Z" fill="#9CA3AF"/>
    <line x1="3.68754" y1="2.97994" x2="17.8297" y2="17.1221" stroke="#9CA3AF"/>
  </symbol>
  <symbol id="icon-pending"  viewBox="0 0 20 21" fill="none">
    <path d="M9.99935 16.3332C6.77769 16.3332 4.16602 13.7215 4.16602 10.4998C4.16602 7.27818 6.77769 4.6665 9.99935 4.6665" stroke="#EAA362" stroke-linecap="round" stroke-dasharray="3 3"/>
    <path d="M10 16.3332C13.2217 16.3332 15.8333 13.7215 15.8333 10.4998C15.8333 7.27818 13.2217 4.6665 10 4.6665" stroke="#EAA362" stroke-linecap="round"/>
    <circle cx="10.0007" cy="10.5002" r="1.66667" fill="#EAA362"/>
  </symbol>
  <symbol id="icon-confirm"  viewBox="0 0 20 20" fill="none">
    <circle cx="10.0007" cy="10.0002" r="6.16667" stroke="#74B185"/>
    <path d="M7.5 9.5835L9.42308 11.6668L12.5 8.3335" stroke="#74B185" stroke-linecap="round" stroke-linejoin="round"/>
  </symbol>
  <symbol id="icon-error"  viewBox="0 0 20 20" fill="none">
    <path fill-rule="evenodd" clip-rule="evenodd" d="M10.0007 16.6668C13.6825 16.6668 16.6673 13.6821 16.6673 10.0002C16.6673 6.31826 13.6825 3.3335 10.0007 3.3335C6.31875 3.3335 3.33398 6.31826 3.33398 10.0002C3.33398 13.6821 6.31875 16.6668 10.0007 16.6668ZM9.50065 5.8335V11.7859H10.5007V5.8335H9.50065ZM9.50065 12.9764V14.1668H10.5007V12.9764H9.50065Z" fill="#E5511F"/>
  </symbol>
  <symbol id="icon-respond"  viewBox="0 0 20 20" fill="none">
    <path d="M9.4497 7.54012C9.20398 7.49692 9.01917 7.28669 9.01917 7.0372V5.76932C9.01917 5.32691 8.48688 5.10248 8.17012 5.41132L4.20116 9.28105C3.9999 9.47729 3.9999 9.80082 4.20116 9.99705L8.17012 13.8668C8.48688 14.1756 9.01917 13.9512 9.01917 13.5088V12.2335C9.01917 11.9574 9.24386 11.7326 9.51988 11.7408C12.042 11.815 14.0279 12.4603 15.6048 13.7511C16.0201 14.0911 16.715 13.7231 16.514 13.2254C15.433 10.5473 13.3013 8.21722 9.4497 7.54012Z" stroke="white"/>
  </symbol>
  <symbol id="icon-phone"  viewBox="0 0 20 21" fill="none">
    <path d="M12.9351 16.6663H12.9342C7.91687 16.6663 3.83399 12.5835 3.83399 7.56624L3.83399 7.56535C3.83257 6.77566 4.11867 6.01247 4.63883 5.4183C5.15842 4.82479 5.87608 4.44047 6.65802 4.33694C6.77872 4.32265 6.90084 4.34754 7.00633 4.40797C7.11242 4.46873 7.19601 4.56218 7.24463 4.67436L7.24459 4.67438L7.24709 4.67994L8.61142 7.72578V7.73061L8.65266 7.82575C8.68988 7.91162 8.70525 8.00537 8.6974 8.09863C8.68966 8.19063 8.65956 8.27932 8.60974 8.357C8.60847 8.35882 8.60611 8.36204 8.60181 8.36751L7.21856 10.0072L7.00777 10.2571L7.15211 10.5504C7.70116 11.6661 8.84403 12.7979 9.97051 13.3465L10.2644 13.4896L10.5135 13.2778L12.1339 11.899L12.134 11.8989L12.1377 11.8962L12.1396 11.8949C12.218 11.8426 12.3081 11.8107 12.4019 11.8021C12.4938 11.7936 12.5863 11.8077 12.6714 11.843L12.6726 11.8436L12.6726 11.8436L12.6777 11.8459L15.8184 13.2532L15.8184 13.2533L15.825 13.2561C15.9373 13.3046 16.031 13.3881 16.092 13.4942C16.1526 13.5996 16.1776 13.7218 16.1635 13.8425C16.0599 14.6244 15.6756 15.342 15.0821 15.8615C14.4879 16.3817 13.7247 16.6678 12.9351 16.6663ZM7.25485 3.9741C7.45454 4.08849 7.61189 4.26439 7.7034 4.47555L9.11142 7.61891L7.25485 3.9741Z" stroke="#9CA3AF"/>
  </symbol>
  <symbol id="icon-mail"  viewBox="0 0 20 21" fill="none">
    <path d="M3.33398 5.5V14.5C3.33398 15.0523 3.7817 15.5 4.33398 15.5H15.6673C16.2196 15.5 16.6673 15.0523 16.6673 14.5V5.5M3.33398 5.5H10.0007H16.6673M3.33398 5.5L9.43144 9.72132C9.77389 9.95839 10.2274 9.95839 10.5699 9.72132L16.6673 5.5" stroke="#9CA3AF" stroke-linejoin="round"/>
  </symbol>
  <symbol id="icon-download"  viewBox="0 0 20 21" fill="none">
    <path d="M3.33398 16.667H16.6673" stroke="white" stroke-linecap="round" stroke-linejoin="round"/>
    <path d="M10 13.333V3.33301M10 13.333L12.5 10.8461M10 13.333L7.5 10.8461" stroke="white" stroke-linecap="round" stroke-linejoin="round"/>
  </symbol>
  <symbol id="icon-confirm-gray"  viewBox="0 0 20 20" fill="none">
    <circle cx="10.0007" cy="9.99967" r="6.16667" stroke="#9CA3AF"/>
    <path d="M7.5 9.58301L9.42308 11.6663L12.5 8.33301" stroke="#9CA3AF" stroke-linecap="round" stroke-linejoin="round"/>
  </symbol>
</svg>

