<?xml version="1.0" encoding="UTF-8"?>
<svg xmlns="http://www.w3.org/2000/svg">
  <symbol id="icon-twitter" viewBox="0 0 22 22">
    <path d="M17.36 7.74v.43c0 4.33-3.3 9.33-9.32 9.33A9.27 9.27 0 0 1 3 16.03a6.8 6.8 0 0 0 4.86-1.37A3.28 3.28 0 0 1 4.8 12.4a3.47 3.47 0 0 0 1.48-.06 3.28 3.28 0 0 1-2.63-3.22v-.04c.44.24.94.4 1.48.42A3.28 3.28 0 0 1 4.12 5.1a9.32 9.32 0 0 0 6.76 3.43 3.28 3.28 0 0 1 5.6-3 6.46 6.46 0 0 0 2.07-.78c-.24.76-.76 1.4-1.44 1.8.66-.07 1.3-.25 1.89-.5-.45.65-1 1.22-1.64 1.7Z"/>
  </symbol>
  <symbol id="icon-tick" viewBox="0 0 24 24" fill="none">
    <path stroke="currentColor" stroke-linecap="round" stroke-linejoin="round" d="m5 11 5.4 5L19 8"/>
  </symbol>
  <symbol id="icon-close" viewBox="0 0 24 24" fill="none">
    <path stroke="currentColor" d="m6 6 6 6m0 0 6 6m-6-6 6-6m-6 6-6 6"/>
  </symbol>
</svg>