<?xml version="1.0" encoding="UTF-8"?>
<svg xmlns="http://www.w3.org/2000/svg">
  <symbol id="icon-twitter" viewBox="0 0 22 22">
    <path d="M17.36 7.74v.43c0 4.33-3.3 9.33-9.32 9.33A9.27 9.27 0 0 1 3 16.03a6.8 6.8 0 0 0 4.86-1.37A3.28 3.28 0 0 1 4.8 12.4a3.47 3.47 0 0 0 1.48-.06 3.28 3.28 0 0 1-2.63-3.22v-.04c.44.24.94.4 1.48.42A3.28 3.28 0 0 1 4.12 5.1a9.32 9.32 0 0 0 6.76 3.43 3.28 3.28 0 0 1 5.6-3 6.46 6.46 0 0 0 2.07-.78c-.24.76-.76 1.4-1.44 1.8.66-.07 1.3-.25 1.89-.5-.45.65-1 1.22-1.64 1.7Z"/>
  </symbol>
  <symbol id="icon-tick" viewBox="0 0 24 24" fill="none">
    <path stroke="currentColor" stroke-linecap="round" stroke-linejoin="round" d="m5 11 5.4 5L19 8"/>
  </symbol>
  <symbol id="icon-close" viewBox="0 0 24 24" fill="none">
    <path stroke="currentColor" d="m6 6 6 6m0 0 6 6m-6-6 6-6m-6 6-6 6"/>
  </symbol>
  <symbol id="icon-settings" viewBox="0 0 24 24" fill="none">
    <circle cx="12" cy="12" r="2.5" stroke="currentColor"/>
    <path stroke="currentColor" d="M10.187 4.992a2.348 2.348 0 0 1 3.626 0 3.348 3.348 0 0 0 2.536 1.221 2.348 2.348 0 0 1 2.26 2.835 3.347 3.347 0 0 0 .627 2.744 2.348 2.348 0 0 1-.807 3.535 3.347 3.347 0 0 0-1.755 2.2 2.348 2.348 0 0 1-3.267 1.574 3.347 3.347 0 0 0-2.814 0 2.348 2.348 0 0 1-3.267-1.574 3.347 3.347 0 0 0-1.755-2.2 2.348 2.348 0 0 1-.807-3.535c.602-.778.83-1.782.626-2.744a2.348 2.348 0 0 1 2.262-2.835 3.348 3.348 0 0 0 2.535-1.22Z"/>
  </symbol>
  <symbol id="icon-notification" viewBox="0 0 24 24" fill="none">
    <path stroke="currentColor" stroke-linecap="round" stroke-linejoin="round" d="M17.17 18H6.83a2 2 0 0 1-1.42-3.41A2 2 0 0 0 6 13.17v-2.44c0-1.7.85-3.3 2.27-4.25l.26-.16c.31-.21.59-.47.81-.78a3.32 3.32 0 0 1 5.32 0c.22.3.5.57.81.78l.26.16A5.1 5.1 0 0 1 18 10.73v2.44a2 2 0 0 0 .59 1.42A2 2 0 0 1 17.17 18Z"/>
    <path stroke="currentColor" d="M14 19a2 2 0 1 1-4 0"/>
  </symbol>
  <symbol id="icon-log_out" viewBox="0 0 24 24" fill="none">
    <path stroke="currentColor" stroke-linecap="round" stroke-linejoin="round" d="M12 20H8a4 4 0 0 1-4-4V8a4 4 0 0 1 4-4h4M10 12h10m0 0-4.7-4m4.7 4-4.7 4"/>
  </symbol>
  <symbol id="icon-plus" viewBox="0 0 24 24" fill="none">
    <path stroke="currentColor" d="M12.07 19.14v-7.07m0 0V5m0 7.07H5m7.07 0h7.07"/>
  </symbol>
  <symbol id="icon-people" viewBox="0 0 24 24" clip-rule="evenodd" fill-rule="evenodd" fill="currentColor">
    <path d="M17.323 9.824a3.235 3.235 0 1 1-6.47 0 3.235 3.235 0 0 1 6.47 0Zm-1.638 3.924a4.237 4.237 0 0 0-1.597-8.16 4.235 4.235 0 0 0-1.597 8.16 6.848 6.848 0 0 0-4.734 4.041 6.853 6.853 0 0 0-.522 2.623h1a5.853 5.853 0 0 1 11.706 0h1a6.853 6.853 0 0 0-5.256-6.664Z"/>
    <path d="M5.697 7.393a2.893 2.893 0 0 1 5.152-1.808l.78-.625a3.893 3.893 0 1 0-5.116 5.727A5.591 5.591 0 0 0 3 15.877h1a4.59 4.59 0 0 1 4.59-4.59v-1a2.893 2.893 0 0 1-2.893-2.894Z"/>
  </symbol>
  <symbol id="icon-inbox" fill="none" viewBox="0 0 24 24" stroke-linecap="round" stroke-linejoin="round">
    <path stroke="currentColor" d="M4 17.72a1 1 0 0 0 1 1h14a1 1 0 0 0 1-1v-5.18a1 1 0 0 0-.09-.42l-2.84-6.25a1 1 0 0 0-.91-.59H7.84a1 1 0 0 0-.9.59l-2.85 6.25a1 1 0 0 0-.09.42v5.18Z"/>
    <path stroke="currentColor" d="M4.64 12.96h3.3a1 1 0 0 1 .84.45l.68 1.02a1 1 0 0 0 .84.45h3.4a1 1 0 0 0 .84-.45l.68-1.02a1 1 0 0 1 .84-.45h3.3"/>
  </symbol>
  <symbol id="icon-chevron_down" viewBox="0 0 24 24" fill="none">
    <path stroke="currentColor" d="m6 9 6 6 6-6"/>
  </symbol>
  <symbol id="icon-more" viewBox="0 0 24 24" fill="currentColor">
    <circle cx="6" cy="12" r="1.5"/>
    <circle cx="12" cy="12" r="1.5"/>
    <circle cx="18" cy="12" r="1.5"/>
  </symbol>
  <symbol id="icon-clock" viewBox="0 0 24 24" fill="none">
    <circle cx="12" cy="12" r="7.5" stroke="currentColor"/>
    <path stroke="currentColor" stroke-linecap="round" stroke-linejoin="round" d="M11.5 8v5l3 2.5"/>
  </symbol>
  <symbol id="icon-question" viewBox="0 0 24 24" fill="none">
    <path fill="currentColor" fill-rule="evenodd" d="M20 12a8 8 0 1 1-16 0 8 8 0 0 1 16 0Zm-8.95-4.32a2.57 2.57 0 0 1 2.71.52 2.4 2.4 0 0 1 .55 2.66c-.2.44-.52.82-.93 1.08l-.02.01c-.25.16-.47.34-.63.53a.82.82 0 0 0-.23.52.5.5 0 0 1-1 0c0-.47.2-.87.46-1.17.26-.3.58-.54.87-.72h.01c.25-.17.44-.4.55-.65a1.35 1.35 0 0 0-.32-1.54c-.21-.2-.48-.34-.77-.4-.3-.05-.6-.02-.88.1-.28.1-.51.29-.67.52-.16.23-.25.5-.25.78a.5.5 0 0 1-1 0c0-.48.15-.95.43-1.35.27-.4.67-.7 1.12-.89ZM12 16.5a.75.75 0 1 0 0-1.5.75.75 0 0 0 0 1.5Z" clip-rule="evenodd"/>
  </symbol>
  <symbol id="icon-delete" viewBox="0 0 24 24" fill="none">
    <path stroke="currentColor" stroke-linecap="round" stroke-linejoin="round" d="m17.9 7.56-.72 10.58a2 2 0 0 1-2 1.86H8.82a2 2 0 0 1-2-1.86L6.11 7.56m11.78 0H20m-2.1 0h-2.95m-8.84 0H4m2.1 0h2.95m0 0h5.9m-5.9 0h5.9m-5.9 0V6c0-1.1.9-2 2-2h1.9a2 2 0 0 1 2 2v1.56m-4.63 3.1v6.67m3.36-6.66v6.66"/>
  </symbol>
  <symbol id="icon-duplicate" viewBox="0 0 24 24" fill="none">
    <path stroke="currentColor" d="M16 6.1V6a2 2 0 0 0-2-2H6a2 2 0 0 0-2 2v8c0 1.1.9 2 2 2h.1"/>
    <rect width="11" height="11" x="8.5" y="8.5" stroke="currentColor" rx="1.5"/>
  </symbol>
</svg>