<?xml version="1.0" encoding="UTF-8"?>
<svg xmlns="http://www.w3.org/2000/svg">
  <symbol id="icon-twitter" viewBox="0 0 22 22">
    <path d="M17.36 7.74v.43c0 4.33-3.3 9.33-9.32 9.33A9.27 9.27 0 0 1 3 16.03a6.8 6.8 0 0 0 4.86-1.37A3.28 3.28 0 0 1 4.8 12.4a3.47 3.47 0 0 0 1.48-.06 3.28 3.28 0 0 1-2.63-3.22v-.04c.44.24.94.4 1.48.42A3.28 3.28 0 0 1 4.12 5.1a9.32 9.32 0 0 0 6.76 3.43 3.28 3.28 0 0 1 5.6-3 6.46 6.46 0 0 0 2.07-.78c-.24.76-.76 1.4-1.44 1.8.66-.07 1.3-.25 1.89-.5-.45.65-1 1.22-1.64 1.7Z"/>
  </symbol>
  <symbol id="icon-tick" viewBox="0 0 24 24" fill="none">
    <path stroke="currentColor" stroke-linecap="round" stroke-linejoin="round" d="m5 11 5.4 5L19 8"/>
  </symbol>
  <symbol id="icon-close" viewBox="0 0 24 24" fill="none">
    <path stroke="currentColor" d="m6 6 6 6m0 0 6 6m-6-6 6-6m-6 6-6 6"/>
  </symbol>
  <symbol id="icon-settings" viewBox="0 0 24 24" fill="none">
    <circle cx="12" cy="12" r="2.5" stroke="currentColor"/>
    <path stroke="currentColor" d="M10.187 4.992a2.348 2.348 0 0 1 3.626 0 3.348 3.348 0 0 0 2.536 1.221 2.348 2.348 0 0 1 2.26 2.835 3.347 3.347 0 0 0 .627 2.744 2.348 2.348 0 0 1-.807 3.535 3.347 3.347 0 0 0-1.755 2.2 2.348 2.348 0 0 1-3.267 1.574 3.347 3.347 0 0 0-2.814 0 2.348 2.348 0 0 1-3.267-1.574 3.347 3.347 0 0 0-1.755-2.2 2.348 2.348 0 0 1-.807-3.535c.602-.778.83-1.782.626-2.744a2.348 2.348 0 0 1 2.262-2.835 3.348 3.348 0 0 0 2.535-1.22Z"/>
  </symbol>
  <symbol id="icon-notification" viewBox="0 0 24 24" fill="none">
    <path stroke="currentColor" stroke-linecap="round" stroke-linejoin="round" d="M17.17 18H6.83a2 2 0 0 1-1.42-3.41A2 2 0 0 0 6 13.17v-2.44c0-1.7.85-3.3 2.27-4.25l.26-.16c.31-.21.59-.47.81-.78a3.32 3.32 0 0 1 5.32 0c.22.3.5.57.81.78l.26.16A5.1 5.1 0 0 1 18 10.73v2.44a2 2 0 0 0 .59 1.42A2 2 0 0 1 17.17 18Z"/>
    <path stroke="currentColor" d="M14 19a2 2 0 1 1-4 0"/>
  </symbol>
  <symbol id="icon-log_out" viewBox="0 0 24 24" fill="none">
    <path stroke="currentColor" stroke-linecap="round" stroke-linejoin="round" d="M12 20H8a4 4 0 0 1-4-4V8a4 4 0 0 1 4-4h4M10 12h10m0 0-4.7-4m4.7 4-4.7 4"/>
  </symbol>
</svg>