<?xml version="1.0" standalone="no"?>
<!DOCTYPE svg PUBLIC "-//W3C//DTD SVG 20010904//EN"
 "http://www.w3.org/TR/2001/REC-SVG-20010904/DTD/svg10.dtd">
<svg version="1.0" xmlns="http://www.w3.org/2000/svg"
 width="700.000000pt" height="700.000000pt" viewBox="0 0 700.000000 700.000000"
 preserveAspectRatio="xMidYMid meet">
<metadata>
Created by potrace 1.14, written by Peter Selinger 2001-2017
</metadata>
<g transform="translate(0.000000,700.000000) scale(0.100000,-0.100000)"
fill="#000000" stroke="none">
<path d="M3724 5964 c-148 -86 -287 -166 -309 -179 -22 -12 -157 -90 -300
-173 -143 -82 -279 -160 -301 -173 -23 -13 -135 -78 -248 -144 -114 -66 -223
-129 -244 -140 -20 -11 -38 -23 -40 -27 -2 -5 -7 -8 -12 -8 -10 0 -273 -151
-280 -161 -7 -10 -7 -3496 0 -3502 3 -3 88 -53 190 -112 102 -59 222 -129 268
-156 45 -27 85 -49 88 -49 3 0 18 -8 32 -19 15 -10 47 -29 72 -43 45 -26 131
-75 225 -130 28 -16 68 -38 91 -50 l41 -21 439 253 c241 139 466 268 499 287
33 19 62 37 64 39 3 3 5 529 5 1171 l1 1166 280 161 c154 89 330 190 390 225
61 35 126 73 145 84 19 10 70 40 113 65 l77 46 0 586 0 586 -247 142 c-137 78
-311 179 -388 224 -77 45 -158 91 -180 103 -22 13 -72 41 -111 64 -39 22 -75
41 -81 41 -5 0 -130 -70 -279 -156z"/>
</g>
</svg>
