<?xml version="1.0" standalone="no"?>
<!DOCTYPE svg PUBLIC "-//W3C//DTD SVG 20010904//EN"
 "http://www.w3.org/TR/2001/REC-SVG-20010904/DTD/svg10.dtd">
<svg version="1.0" xmlns="http://www.w3.org/2000/svg"
 width="700.000000pt" height="700.000000pt" viewBox="0 0 700.000000 700.000000"
 preserveAspectRatio="xMidYMid meet">
<metadata>
Created by potrace 1.14, written by Peter Selinger 2001-2017
</metadata>
<g transform="translate(0.000000,700.000000) scale(0.100000,-0.100000)"
fill="#000000" stroke="none">
<path d="M3135 6980 c-253 -50 -449 -154 -630 -335 -201 -200 -324 -455 -352
-725 -44 -441 137 -859 486 -1120 56 -42 226 -135 296 -161 39 -15 130 -41
158 -45 16 -2 32 -6 35 -8 23 -14 241 -20 792 -20 l625 -1 0 685 c0 625 -2
692 -18 770 -106 493 -460 852 -942 955 -115 25 -335 27 -450 5z"/>
<path d="M1128 4865 c-1 -1 -25 -5 -53 -9 -198 -24 -417 -119 -585 -255 -210
-169 -381 -455 -425 -709 -27 -156 -27 -349 0 -477 9 -44 18 -87 20 -95 7 -34
78 -208 102 -250 78 -135 117 -185 228 -295 183 -180 387 -281 674 -332 14 -2
325 -5 691 -7 l665 -2 1 -675 c1 -648 2 -678 23 -776 53 -253 158 -450 335
-628 184 -185 423 -307 671 -343 103 -14 335 -6 432 17 350 80 652 318 812
638 39 78 85 201 94 253 3 14 8 36 11 50 16 67 18 95 21 220 4 163 -12 275
-61 419 -149 447 -546 769 -1009 818 -33 4 -345 7 -692 7 -348 0 -633 3 -634
6 -1 3 -2 302 -3 665 -2 584 -6 698 -23 780 -2 11 -6 31 -9 45 -49 245 -218
510 -436 684 -129 103 -362 212 -497 232 -20 3 -47 8 -61 11 -27 6 -286 13
-292 8z"/>
<path d="M4551 3895 c1 -729 3 -748 59 -923 115 -354 383 -637 725 -765 147
-55 275 -76 440 -72 164 4 233 16 375 65 352 121 647 435 754 801 13 48 28
106 31 130 3 24 8 58 11 74 8 45 7 221 -1 294 -32 290 -203 602 -437 797 -94
79 -250 164 -383 208 -170 57 -192 58 -913 60 l-662 2 1 -671z"/>
</g>
</svg>
