<svg xmlns="http://www.w3.org/2000/svg" width="81" height="26" fill="none"><g clip-path="url(#a)"><path fill="#0D5AFD" fill-rule="evenodd" d="M8.94 12.43c0-2.5-2-4.52-4.47-4.52A4.5 4.5 0 0 0 0 12.43c0 2.5 2 4.53 4.47 4.53h4.47v4.52c0 2.5 2 4.52 4.48 4.52a4.5 4.5 0 0 0 4.47-4.52c0-2.5-2-4.52-4.47-4.52H8.94v-4.53ZM16.77 4.52c0-2.5-2-4.52-4.47-4.52a4.5 4.5 0 0 0-4.47 4.52c0 2.5 2 4.52 4.47 4.52h4.47v4.53c0 2.5 2 4.52 4.47 4.52a4.5 4.5 0 0 0 4.47-4.52c0-2.5-2-4.53-4.47-4.53h-4.47V4.52Z" clip-rule="evenodd"/><path fill="#000" fill-rule="evenodd" d="M38.08 22.23a11.9 11.9 0 0 0 5.6 1.27c2.57 0 4.68-.5 6.33-1.47.43-.26.55-.82.32-1.28l-.73-1.39c-.4-.81-1-.6-1.86-.32-1.07.32-2.3.48-3.7.48-2.03 0-3.65-.57-4.86-1.72-1.2-1.18-1.8-2.77-1.8-4.79 0-2 .59-3.57 1.78-4.72 1.2-1.17 2.83-1.76 4.88-1.76 1.36 0 2.91.26 3.97.59.56.16.8-.1 1.12-.6l.94-1.44c.24-.38.14-.89-.24-1.1a12.13 12.13 0 0 0-6.16-1.48c-2.1 0-3.97.43-5.59 1.3a8.93 8.93 0 0 0-3.75 3.65A11.17 11.17 0 0 0 33 13.01c0 2.14.44 3.99 1.33 5.56a9.16 9.16 0 0 0 3.75 3.66Zm26.01.84c.24 0 .43-.2.43-.43V11.77c-.02-1.18-2.27-2.07-3.26-2.22-.4-.07-.81.06-.83.62l-.03 12.47c0 .23.2.43.43.43h3.26Z" clip-rule="evenodd"/><path fill="#000" d="M73.95 23.38c-1.42 0-2.66-.29-3.74-.87A6.33 6.33 0 0 1 67.74 20a8.12 8.12 0 0 1-.86-3.82c0-1.4.29-2.66.86-3.75a6.28 6.28 0 0 1 2.47-2.54c1.08-.6 2.32-.9 3.74-.9 1.4 0 2.64.3 3.7.9 1.07.6 1.9 1.45 2.47 2.54a7.8 7.8 0 0 1 .88 3.75c0 1.45-.3 2.72-.88 3.82a6.17 6.17 0 0 1-2.45 2.5 7.6 7.6 0 0 1-3.72.88Zm0-3.33c1 0 1.79-.35 2.38-1.04.58-.72.88-1.66.88-2.83 0-1.2-.3-2.14-.88-2.82a2.9 2.9 0 0 0-2.38-1.05c-1 0-1.8.35-2.4 1.05a4.17 4.17 0 0 0-.88 2.82c0 1.17.3 2.11.89 2.83.6.7 1.4 1.04 2.4 1.04ZM53.55 3.19c-.23 0-.42.2-.42.43l.01 19.02c0 .23.2.43.43.43h3.41c.24 0 .43-.2.43-.43V3.59c0-.24-.2-.44-.43-.43l-3.43.03ZM65.02 5.47a2.45 2.45 0 1 1-4.9 0 2.45 2.45 0 0 1 4.9 0Z"/></g><defs><clipPath id="a"><path fill="#fff" d="M0 0h81v26H0z"/></clipPath></defs></svg>