<svg xmlns="http://www.w3.org/2000/svg" width="81" height="26" fill="none"><path fill="#000" d="M42.69 22.49c-1.92 0-3.62-.38-5.1-1.14a8.31 8.31 0 0 1-3.42-3.3 10 10 0 0 1-1.2-5.02A10 10 0 0 1 34.17 8a8.1 8.1 0 0 1 3.42-3.3 10.72 10.72 0 0 1 5.1-1.17c2.48 0 4.56.57 6.22 1.71V9a6.84 6.84 0 0 0-2.6-1.38c-.96-.3-2.06-.44-3.29-.44-1.87 0-3.35.52-4.45 1.58a5.64 5.64 0 0 0-1.62 4.27c0 1.82.55 3.25 1.65 4.31a6.16 6.16 0 0 0 4.42 1.56c1.27 0 2.4-.15 3.37-.44a8.4 8.4 0 0 0 2.72-1.48v3.74c-1.57 1.18-3.72 1.77-6.42 1.77Zm8.62-19.6h3.88V22.1h-3.88V2.89Zm8.71 4.8c-.6 0-1.1-.2-1.51-.6-.42-.4-.62-.9-.62-1.5 0-.59.2-1.08.62-1.48.4-.42.91-.63 1.51-.63s1.1.21 1.52.63c.41.4.62.9.62 1.48a2.1 2.1 0 0 1-2.13 2.1Zm-1.95 1.93h3.9V22.1h-3.9V9.62Zm13.67 12.87c-1.5 0-2.8-.27-3.94-.8a6.29 6.29 0 0 1-2.6-2.32c-.6-1-.9-2.18-.9-3.51 0-1.3.3-2.45.9-3.46.62-1 1.49-1.78 2.6-2.34a8.83 8.83 0 0 1 3.94-.83 8.6 8.6 0 0 1 3.88.83c1.13.56 2 1.34 2.6 2.34.61 1 .92 2.16.92 3.46a6.11 6.11 0 0 1-3.5 5.82 8.9 8.9 0 0 1-3.9.81Zm0-3.07a3.3 3.3 0 0 0 2.5-.96c.6-.66.92-1.53.92-2.6 0-1.1-.31-1.98-.93-2.6a3.25 3.25 0 0 0-2.5-.96c-1.06 0-1.9.32-2.51.96-.62.62-.93 1.5-.93 2.6 0 1.07.3 1.94.93 2.6.63.64 1.47.96 2.52.96Z"/><path fill="#0D5AFD" fill-rule="evenodd" d="M8.94 12.43c0-2.5-2-4.52-4.47-4.52A4.5 4.5 0 0 0 0 12.43c0 2.5 2 4.53 4.47 4.53h4.47v4.52c0 2.5 2 4.52 4.48 4.52a4.5 4.5 0 0 0 4.47-4.52c0-2.5-2-4.52-4.47-4.52H8.94v-4.53ZM16.77 4.52c0-2.5-2-4.52-4.47-4.52a4.5 4.5 0 0 0-4.47 4.52c0 2.5 2 4.52 4.47 4.52h4.47v4.53c0 2.5 2 4.52 4.47 4.52a4.5 4.5 0 0 0 4.47-4.52c0-2.5-2-4.53-4.47-4.53h-4.47V4.52Z" clip-rule="evenodd"/></svg>